<?xml version="1.0" encoding="UTF-8"?>
<svg version="1.1" xmlns="http://www.w3.org/2000/svg" width="225" height="225">
<path d="M0 0 C74.25 0 148.5 0 225 0 C225 74.25 225 148.5 225 225 C150.75 225 76.5 225 0 225 C0 150.75 0 76.5 0 0 Z " fill="#000000" transform="translate(0,0)"/>
<path d="M0 0 C1 2 1 2 0.50390625 3.9609375 C-5.56526713 19.52421198 -16.1017052 32.27138911 -31 40 C-45.61417682 46.28226301 -58.70262811 47.26121194 -74.4375 46.83398438 C-85.43613303 46.66681438 -92.94280565 47.95960994 -101.046875 55.6953125 C-105.61551172 61.08630383 -107.76618683 67.58603031 -107.37890625 74.64453125 C-106.01325388 83.13410215 -102.94554387 89.7908421 -96 95 C-89.57611227 99.06409224 -82.41215557 98.86571339 -75 98 C-68.14354287 95.93480207 -62.74331577 92.1400262 -59 86 C-54.73956263 77.30093206 -55.2158255 69.07352485 -58 60 C-56.83984375 59.82984375 -55.6796875 59.6596875 -54.484375 59.484375 C-45.29727526 58.08029766 -36.73522652 56.26909235 -28 53 C-26.00212046 52.32700537 -24.0026194 51.65875638 -22 51 C-19.42087045 58.20289476 -18.48194347 64.67881015 -18.5625 72.3125 C-18.57007324 73.3221582 -18.57764648 74.33181641 -18.58544922 75.37207031 C-18.96974656 92.82534087 -26.67330584 108.06910248 -39.2421875 120.15625 C-54.3147022 133.00495105 -71.11319729 137.20826633 -90.54443359 136.21582031 C-96.05042615 135.73189732 -100.94775181 134.16423553 -106 132 C-106.8765625 131.63777344 -107.753125 131.27554688 -108.65625 130.90234375 C-126.24445758 122.89536653 -136.36673845 108.45054051 -143.16796875 91.00390625 C-147.97217006 75.10267657 -145.90511856 57.56113783 -138.42578125 42.91796875 C-134.43172894 36.26121491 -129.42175011 30.52920822 -124 25 C-123.45988281 24.43539063 -122.91976562 23.87078125 -122.36328125 23.2890625 C-109.61282364 11.1488283 -91.96229042 8.55083894 -75.10546875 8.59375 C-73.83383377 8.58291382 -72.56219879 8.57207764 -71.25202942 8.56091309 C-67.23045935 8.52699777 -63.20917891 8.51052827 -59.1875 8.5 C-28.44479219 9.68150216 -28.44479219 9.68150216 0 0 Z " fill="#3DB467" transform="translate(193,6)"/>
<path d="M0 0 C1.24206018 3.72618055 0.2755733 5.09114311 -1.40014648 8.49609375 C-1.94457397 9.54990234 -1.94457397 9.54990234 -2.5 10.625 C-2.86875244 11.34558594 -3.23750488 12.06617188 -3.61743164 12.80859375 C-6.53702444 18.3780855 -9.69208061 23.38569841 -14 28 C-14.61875 28.67160156 -15.2375 29.34320313 -15.875 30.03515625 C-20.33713698 34.42123407 -25.22961265 37.4643097 -30.75 40.3125 C-31.67800415 40.80085327 -31.67800415 40.80085327 -32.62475586 41.29907227 C-42.81073492 46.27626793 -53.58019588 47.44631404 -64.7734375 47.22265625 C-65.94025055 47.21366806 -67.1070636 47.20467987 -68.30923462 47.19541931 C-71.99814469 47.16571603 -75.6863643 47.1160041 -79.375 47.0625 C-112.22510551 45.98832144 -112.22510551 45.98832144 -143 56 C-139.78938434 41.18434647 -130.53538538 28.59882413 -118.26171875 19.9921875 C-114.58562954 17.74691145 -110.86780574 15.87716464 -106.9375 14.125 C-106.30150879 13.83882812 -105.66551758 13.55265625 -105.01025391 13.2578125 C-95.53913833 9.25070945 -86.29116671 8.74247693 -76.109375 8.9453125 C-73.59896414 8.97063484 -71.08854715 8.9953545 -68.578125 9.01953125 C-64.68208901 9.06874331 -60.78638806 9.12436929 -56.890625 9.19189453 C-28.00404387 9.95438328 -28.00404387 9.95438328 -1 1 C-0.67 0.67 -0.34 0.34 0 0 Z " fill="#3EB367" transform="translate(173,146)"/>
<path d="M0 0 C1.25031761 0.00424484 1.25031761 0.00424484 2.52589417 0.00857544 C5.16454985 0.01968961 7.80285473 0.04477735 10.44140625 0.0703125 C12.24022944 0.08035365 14.039058 0.08947751 15.83789062 0.09765625 C20.2266958 0.11960015 24.61524173 0.15406863 29.00390625 0.1953125 C29.00390625 0.5253125 29.00390625 0.8553125 29.00390625 1.1953125 C25.08265332 2.13308297 21.51342194 2.274056 17.48828125 2.1875 C16.23660156 2.17074219 14.98492187 2.15398438 13.6953125 2.13671875 C11.08318483 2.09270867 8.4711785 2.04072099 5.859375 1.98046875 C-4.32938203 1.86551867 -11.77688982 3.08359676 -19.99609375 9.1953125 C-19.66609375 7.8753125 -19.33609375 6.5553125 -18.99609375 5.1953125 C-18.33609375 5.1953125 -17.67609375 5.1953125 -16.99609375 5.1953125 C-16.66609375 4.2053125 -16.33609375 3.2153125 -15.99609375 2.1953125 C-10.63999155 0.0971535 -5.69819484 -0.0739805 0 0 Z " fill="#449260" transform="translate(112.99609375,50.8046875)"/>
<path d="M0 0 C1 2 1 2 0.328125 4.27734375 C-0.02765625 5.15519531 -0.3834375 6.03304688 -0.75 6.9375 C-1.26820313 8.25041016 -1.26820313 8.25041016 -1.796875 9.58984375 C-2.95642525 11.91270902 -4.05798473 13.30910739 -6 15 C-6 13.35 -6 11.7 -6 10 C-6.66 10 -7.32 10 -8 10 C-8 9.01 -8 8.02 -8 7 C-9.32 7 -10.64 7 -12 7 C-12 6.34 -12 5.68 -12 5 C-11.07767578 4.70996094 -11.07767578 4.70996094 -10.13671875 4.4140625 C-9.32847656 4.15367188 -8.52023438 3.89328125 -7.6875 3.625 C-6.88699219 3.36976562 -6.08648437 3.11453125 -5.26171875 2.8515625 C-2.77275472 2.01168189 -2.77275472 2.01168189 0 0 Z " fill="#43A869" transform="translate(193,6)"/>
<path d="M0 0 C1.39195915 4.17587745 -0.17676781 6.13474776 -2 10 C-2.33 9.34 -2.66 8.68 -3 8 C-10.92 8.495 -10.92 8.495 -19 9 C-18.67 8.34 -18.34 7.68 -18 7 C-16.12328008 6.46879778 -14.22165836 6.02420901 -12.3125 5.625 C-7.33828848 4.46889601 -3.95897077 3.18917089 0 0 Z " fill="#479765" transform="translate(173,146)"/>
<path d="M0 0 C0.33 0 0.66 0 1 0 C1.23886462 3.90145542 1.28356503 6.43877754 -0.5 9.96875 C-2.87038213 15.22481473 -2.31829579 20.78645103 -2.1875 26.4375 C-2.17396484 27.55060547 -2.16042969 28.66371094 -2.14648438 29.81054688 C-2.11132997 32.54087212 -2.06212106 35.27017744 -2 38 C-2.33 38 -2.66 38 -3 38 C-6.12385872 25.60615402 -4.78733146 11.71186447 0 0 Z " fill="#4A9564" transform="translate(52,55)"/>
<path d="M0 0 C3 0 3 0 5 1 C0.96635426 6.16428887 -3.38471604 10.54735919 -9 14 C-9.66 14 -10.32 14 -11 14 C-11 13.34 -11 12.68 -11 12 C-10.34 12 -9.68 12 -9 12 C-9 10.35 -9 8.7 -9 7 C-8.01 7 -7.02 7 -6 7 C-5.34 6.505 -4.68 6.01 -4 5.5 C-2 4 -2 4 1 4 C0.67 2.68 0.34 1.36 0 0 Z " fill="#45A76A" transform="translate(155,118)"/>
<path d="M0 0 C0.33 0 0.66 0 1 0 C1.55273037 13.79778768 1.55273037 13.79778768 -2 19 C-2.66 20.093125 -3.32 21.18625 -4 22.3125 C-6 25 -6 25 -9 26 C-9 26.66 -9 27.32 -9 28 C-10.32 27.67 -11.64 27.34 -13 27 C-12.31164062 26.48953125 -12.31164062 26.48953125 -11.609375 25.96875 C-3.35471143 19.44825945 -1.64868139 12.81758294 -0.296875 2.5625 C-0.19890625 1.716875 -0.1009375 0.87125 0 0 Z " fill="#4C9E6C" transform="translate(138,74)"/>
<path d="M0 0 C-0.6875 2.4375 -0.6875 2.4375 -2 5 C-6.40842591 6.92868633 -12.37515546 5.9849206 -17 5 C-17.33 4.34 -17.66 3.68 -18 3 C-17.26394531 2.95101562 -16.52789062 2.90203125 -15.76953125 2.8515625 C-14.79371094 2.77679688 -13.81789063 2.70203125 -12.8125 2.625 C-11.84957031 2.55539063 -10.88664062 2.48578125 -9.89453125 2.4140625 C-6.43815277 1.91962779 -3.4332943 0 0 0 Z " fill="#449460" transform="translate(125,102)"/>
<path d="M0 0 C0.94875 0.350625 1.8975 0.70125 2.875 1.0625 C0.31926039 4.0796926 -2.50880793 5.3057533 -6.125 6.8125 C-7.176875 7.26109375 -8.22875 7.7096875 -9.3125 8.171875 C-12.125 9.0625 -12.125 9.0625 -15.125 8.0625 C-14.465 8.0625 -13.805 8.0625 -13.125 8.0625 C-13.125 7.4025 -13.125 6.7425 -13.125 6.0625 C-11.145 6.0625 -9.165 6.0625 -7.125 6.0625 C-7.125 5.4025 -7.125 4.7425 -7.125 4.0625 C-6.465 3.4025 -5.805 2.7425 -5.125 2.0625 C-5.125 1.4025 -5.125 0.7425 -5.125 0.0625 C-3.125 -0.9375 -3.125 -0.9375 0 0 Z " fill="#46A168" transform="translate(141.125,130.9375)"/>
<path d="M0 0 C0 0.66 0 1.32 0 2 C-0.99 2 -1.98 2 -3 2 C-3 2.66 -3 3.32 -3 4 C-3.68707031 4.19335938 -4.37414062 4.38671875 -5.08203125 4.5859375 C-5.98308594 4.84632812 -6.88414062 5.10671875 -7.8125 5.375 C-9.15248047 5.75785156 -9.15248047 5.75785156 -10.51953125 6.1484375 C-13.20467896 6.95266661 -13.20467896 6.95266661 -16 9 C-18.33199388 9.07905064 -20.66832622 9.08798769 -23 9 C-22 7 -22 7 -18.54296875 5.78125 C-17.09341775 5.34651805 -15.64145248 4.91977631 -14.1875 4.5 C-9.83445749 3.22310753 -4.35193317 0 0 0 Z " fill="#499766" transform="translate(171,57)"/>
<path d="M0 0 C0.66 1.32 1.32 2.64 2 4 C1.01 4.33 0.02 4.66 -1 5 C-1.33 6.65 -1.66 8.3 -2 10 C-0.68 10.33 0.64 10.66 2 11 C-1.96 12.98 -1.96 12.98 -6 15 C-3.10933941 4.44191344 -3.10933941 4.44191344 0 0 Z " fill="#499365" transform="translate(36,187)"/>
<path d="M0 0 C0.66 0.33 1.32 0.66 2 1 C0.04335878 3.02652126 -1.8194054 4.87252146 -4.125 6.5 C-6.13528425 7.86485189 -6.13528425 7.86485189 -6.875 10.0625 C-8 12 -8 12 -11.125 13.25 C-12.07375 13.4975 -13.0225 13.745 -14 14 C-9.72706118 8.76564995 -5.18419194 4.32893185 0 0 Z " fill="#4A9E69" transform="translate(76,25)"/>
<path d="M0 0 C2.475 0.99 2.475 0.99 5 2 C4.67 2.66 4.34 3.32 4 4 C4.99 4.33 5.98 4.66 7 5 C7 5.66 7 6.32 7 7 C8.65 7 10.3 7 12 7 C12.33 7.99 12.66 8.98 13 10 C9 8.66666667 5 7.33333333 1 6 C0.67 4.02 0.34 2.04 0 0 Z " fill="#45A267" transform="translate(81,130)"/>
<path d="M0 0 C0.99 0.33 1.98 0.66 3 1 C2.04801289 2.64951226 1.08820855 4.29451508 0.125 5.9375 C-0.40867188 6.85402344 -0.94234375 7.77054688 -1.4921875 8.71484375 C-3 11 -3 11 -5 12 C-5.33 11.01 -5.66 10.02 -6 9 C-4.1875 5.8125 -4.1875 5.8125 -2 3 C-1.34 3 -0.68 3 0 3 C0 2.01 0 1.02 0 0 Z " fill="#46A569" transform="translate(167,157)"/>
<path d="M0 0 C-1.11375 0.226875 -2.2275 0.45375 -3.375 0.6875 C-7.16038373 1.60623658 -7.16038373 1.60623658 -8.4375 4.625 C-8.623125 5.40875 -8.80875 6.1925 -9 7 C-10.74627478 4.38058783 -11.38722388 2.96175123 -12 0 C-3.42857143 -1.28571429 -3.42857143 -1.28571429 0 0 Z " fill="#4B9768" transform="translate(147,66)"/>
<path d="M0 0 C-3.2645028 3.2645028 -7.41047299 3.93236055 -11.9375 4.125 C-12.618125 4.08375 -13.29875 4.0425 -14 4 C-14 3.34 -14 2.68 -14 2 C-4.58997722 -0.29612756 -4.58997722 -0.29612756 0 0 Z " fill="#479C65" transform="translate(104,16)"/>
<path d="M0 0 C-3.78756477 3.61139896 -3.78756477 3.61139896 -6 5 C-8.875 4.8125 -8.875 4.8125 -11 4 C-3.77464789 -1.88732394 -3.77464789 -1.88732394 0 0 Z " fill="#479A65" transform="translate(73,159)"/>
<path d="M0 0 C3 0 3 0 5 1 C3.02 3.31 1.04 5.62 -1 8 C-1.66 7.01 -2.32 6.02 -3 5 C-1.68 4.67 -0.36 4.34 1 4 C0.67 2.68 0.34 1.36 0 0 Z " fill="#419362" transform="translate(155,118)"/>
<path d="M0 0 C0 0.99 0 1.98 0 3 C-6.625 6.125 -6.625 6.125 -10 5 C-6.7 3.35 -3.4 1.7 0 0 Z " fill="#489A67" transform="translate(88,19)"/>
<path d="M0 0 C1.83836919 3.67673838 2.93651813 7.04992447 4 11 C3.34 11 2.68 11 2 11 C2 10.34 2 9.68 2 9 C1.34 9 0.68 9 0 9 C0 6.03 0 3.06 0 0 Z " fill="#469465" transform="translate(85,83)"/>
<path d="M0 0 C1 2 1 2 0.44140625 3.9453125 C0.15136719 4.66460938 -0.13867188 5.38390625 -0.4375 6.125 C-0.72496094 6.84945313 -1.01242188 7.57390625 -1.30859375 8.3203125 C-1.53675781 8.87460938 -1.76492187 9.42890625 -2 10 C-3 7 -3 7 -2 4 C-2.99 3.67 -3.98 3.34 -5 3 C-3.35 2.01 -1.7 1.02 0 0 Z " fill="#4B8B65" transform="translate(193,6)"/>
<path d="M0 0 C0.99 0.33 1.98 0.66 3 1 C3 1.66 3 2.32 3 3 C3.99 3 4.98 3 6 3 C6.33 4.98 6.66 6.96 7 9 C4.03595495 6.19195732 1.55500981 3.81684226 0 0 Z " fill="#458E62" transform="translate(57,112)"/>
<path d="M0 0 C2.0625 0.4375 2.0625 0.4375 4 1 C2.07423885 3.43929746 0.19909405 5.80090595 -2 8 C-1.125 1.125 -1.125 1.125 0 0 Z " fill="#479C68" transform="translate(89,60)"/>
<path d="M0 0 C-5.625 3 -5.625 3 -9 3 C-8.67 2.01 -8.34 1.02 -8 0 C-4.71303767 -0.79953138 -3.28976808 -1.09658936 0 0 Z " fill="#499D6B" transform="translate(143,186)"/>
</svg>
